<?xml version="1.0" encoding="utf-8"?>
<!-- Generator: Adobe Illustrator 17.0.0, SVG Export Plug-In . SVG Version: 6.00 Build 0)  -->
<!DOCTYPE svg PUBLIC "-//W3C//DTD SVG 1.1//EN" "http://www.w3.org/Graphics/SVG/1.1/DTD/svg11.dtd">
<svg version="1.1"
	 id="eye" sodipodi:docname="humaneye.pdf" sodipodi:version="0.32" inkscape:version="0.48.4 r9939" xmlns:sodipodi="http://sodipodi.sourceforge.net/DTD/sodipodi-0.dtd" xmlns:svg="http://www.w3.org/2000/svg" xmlns:rdf="http://www.w3.org/1999/02/22-rdf-syntax-ns#" xmlns:cc="http://creativecommons.org/ns#" xmlns:dc="http://purl.org/dc/elements/1.1/" xmlns:inkscape="http://www.inkscape.org/namespaces/inkscape"
	 xmlns="http://www.w3.org/2000/svg" xmlns:xlink="http://www.w3.org/1999/xlink" x="0px" y="0px" width="615.097px"
	 height="379.698px" viewBox="0 0 615.097 379.698" enable-background="new 0 0 615.097 379.698" xml:space="preserve">
<sodipodi:namedview  height="516px" width="491px" fit-margin-bottom="0" fit-margin-right="0" inkscape:current-layer="Labeling" inkscape:window-y="-8" inkscape:window-width="1366" inkscape:window-x="-8" inkscape:pageshadow="2" inkscape:window-height="705" inkscape:pageopacity="0.0" objecttolerance="10.0" guidetolerance="10.0" gridtolerance="10.0" borderopacity="1.0" bordercolor="#666666" pagecolor="#ffffff" inkscape:zoom="0.96593773" inkscape:cx="292.90801" inkscape:cy="168.8546" showgrid="false" fit-margin-top="0" fit-margin-left="0" id="base" inkscape:window-maximized="1">
	</sodipodi:namedview>
<g id="Labeling" transform="translate(43.716347,-72.086005)" inkscape:groupmode="layer">
	<g id="g3944" transform="matrix(0,-1,1,0,59.744546,565.9042)">
		
			<path id="sclera" sodipodi:nodetypes="csccccsccc" inkscape:connector-curvature="0" fill="#999999" stroke="#000000" stroke-width="1" d="
			M472.455,171.792c3.494,93.93-68.607,150.384-151.62,150.384c-26.597,0-33.373-1.827-51.828-3.696
			c-14.142,24.695-18.373,42.778-31.297,69.701c-21.131,2.63-38.349-0.609-43.546-26.913c18.662-32.277,21.484-38.658,40.01-58.595
			c-39.99-32.376-59.927-79.831-64.34-130.573c-5.815-66.866,37.611-118.766,93.725-140.046
			c33.91-30.121,73.266-47.328,119.747,0.781C437.224,55.698,472.455,109.57,472.455,171.792L472.455,171.792z"/>
		<path id="choroidea" inkscape:connector-curvature="0" fill="#DDAFE9" stroke="#000000" stroke-width="1" d="M464.886,173.047
			c-7.392,84.022-58.962,138.872-141.317,141.929c-77.954,2.894-138.89-64.594-143.491-142.803
			c-3.479-59.13,46.795-141.63,143.491-141.056C408.107,31.619,464.451,99.069,464.886,173.047z"/>
		<path id="corpus_vitreum" inkscape:connector-curvature="0" fill="#FFFFFF" stroke="#000000" stroke-width="1" d="
			M457.021,169.771c0,76.576-60.349,138.654-134.794,138.654s-134.794-62.077-134.794-138.654S247.783,31.117,322.227,31.117
			S457.021,93.195,457.021,169.771L457.021,169.771L457.021,169.771z"/>
		
			<rect id="nervus_opticus_--3d-canal" x="235.277" y="279.526" transform="matrix(0.8745 0.485 -0.485 0.8745 190.5807 -74.1726)" fill="#AA8800" width="6.677" height="103.3"/>
		
			<path id="nervus_opticus" sodipodi:nodetypes="ccssssssccscsssccsssssscssscccc" inkscape:connector-curvature="0" fill="#FFDD55" stroke="#000000" d="
			M201.95,365.411c10.488-27.778,25.415-43.378,32.578-50.797c6.855-7.11,8.159-12.915,9.727-18.682
			c1.607-5.911-3.774-14.471-9.573-18.528c-5.903-4.13-23.636-24.109-29.181-33.35c-5.545-9.242-13.064-29.347-14.359-35.821
			c-0.52-2.6-5.572-21.124-6.47-40.789c-0.443-9.694,1.509-29.431,6.863-43.578c4.851-12.817,9.526-16.941,14.583-24.793
			c-10.453,19.492-18.193,41.032-17.923,63.216c0.27,22.029,7.433,59.235,20.621,76.815c5.134,6.844,18.112,27.52,33.964,37.856
			c15.64,0.318,21.176,5.776,18.558,10.608c-15.397,28.418-38.629,68.691-47.72,83.931c-3.925,6.58,1.734,6.363,4.04,3.454
			c6.173-7.785,48.006-88.466,46.847-88.736c14.859-3.504,23.339,13.092,33.896,17.722c8.111-0.419,13.997-1.534,26.961-0.954
			c5.041,0.225,7.142,4.051,9.566,3.837c8.938-0.788,4.747-3.986,10.931-5.186c17.681-3.431,37.511-9.807,49.246-17.576
			c13.781-9.123,36.345-32.443,49.275-59.355c4.22-8.783,12.549-36.445,11.133-63.425c-1.264-24.093-3.617-31.797-16.098-60.198
			c13.2,26.639,22.042,34.16,20.689,67.935c-1.352,33.765-6.26,56.57-30.262,89.551c-9.17,12.601-36.178,37.714-62.996,45.697
			c-49.125,14.623-90.545,2.364-94.108,1.48c-8.233,0.578-14.434,12.874-16.975,20.059c-3.475,12.742-14.039,39.688-25.557,57.173
			C220.48,383.353,202.461,378.62,201.95,365.411L201.95,365.411z"/>
		<g id="lens" transform="translate(8.99762,-43.753295)">
			<path id="lens_--top" sodipodi:nodetypes="ccc" inkscape:connector-curvature="0" fill="#8FB4C8" stroke="#000000" d="
				M275.226,96.657c0,0,31.469-24.717,81.339-1.851C335.625,59.747,297.27,61.128,275.226,96.657z"/>
			
				<radialGradient id="lens_--bottom_1_" cx="217.2171" cy="-158.8321" r="51.0139" gradientTransform="matrix(0 0.53 0.8467 0 450.2674 -19.0614)" gradientUnits="userSpaceOnUse">
				<stop  offset="0" style="stop-color:#97B5C5"/>
				<stop  offset="0.5" style="stop-color:#70A0BA"/>
				<stop  offset="0.75" style="stop-color:#528BAA"/>
				<stop  offset="1" style="stop-color:#FFFFFF"/>
			</radialGradient>
			
				<path id="lens_--bottom" sodipodi:nodetypes="cssscc" inkscape:connector-curvature="0" fill="url(#lens_--bottom_1_)" stroke="#000000" stroke-width="1" d="
				M355.509,93.551c2.537,2.006,1.547,2.749,0.088,5.679c-4.789,9.614-18.967,20.353-39.154,20.353
				c-19.067,0-35.327-8.458-40.458-18.732c-1.222-2.447-1.657-4.985,2.481-7.736C290.903,87.205,319.968,76.52,355.509,93.551z"/>
		</g>
		<path id="path" inkscape:connector-curvature="0" fill="#D1D3D3" stroke="#000000" d="M274.363,39.321
			c51-7.82,60.98-8.475,96.654-0.309c-9.129-17.991-22.614-27.505-46.165-28.718c-23.415-1.206-37.577,12.886-50.488,28.873"/>
		
			<radialGradient id="pupilla_et_musculus_ciliaris_1_" cx="533.9709" cy="-251.805" r="90.3982" gradientTransform="matrix(0 0.2102 0.6423 0 486.712 -72.6904)" gradientUnits="userSpaceOnUse">
			<stop  offset="0" style="stop-color:#A05A2C"/>
			<stop  offset="0" style="stop-color:#784321"/>
			<stop  offset="0.75" style="stop-color:#CB743B"/>
			<stop  offset="1" style="stop-color:#CC4343"/>
		</radialGradient>
		
			<path id="pupilla_et_musculus_ciliaris" sodipodi:nodetypes="ccccsccsscccccccccssccsccccc" inkscape:connector-curvature="0" fill="url(#pupilla_et_musculus_ciliaris_1_)" stroke="#000000" d="
			M278.06,36.055c-2.477,3.467-0.489,2.254-4.921,2.646c-11.301,1.104-17.136,7.471-24.262,11.88c0.506,2.114-0.56,2.9,1.799,3.254
			c0.641-0.855,3.418-0.714,4.921,0c2.059,0.979,0.407-2.425,2.699-1.852c1.638,1.206,2.433,2.394,4.419,2.09
			c0.397-0.298,2.557-5.085,3.307-4.71c1.378,0.689,1.899,2.31,3.096,2.011c1.089-0.272,1.368-0.798,1.852-1.402
			c2.423-2.001,2.907,3.813,5.715,4.022c1.824-4.734,3.824-9.171,2.623-13.682c9.091,0,19.049-0.024,31.694-0.024
			c0.882-3.821,0.705-6.456,14.708-6.456c12.267-0.149,14.051,2.206,15.148,6.059c19.356,0,16.536,0.009,28.439,0.009
			c-0.493,4.465,0.656,9.782,2.48,14.517c2.808-0.209,2.657-5.467,5.08-3.466c0.484,0.605,0.763,1.104,1.852,1.376
			c1.196,0.299,1.717-1.322,3.096-2.011c0.75-0.375,2.936,4.411,3.334,4.71c1.986,0.304,2.754-0.884,4.392-2.09
			c2.292-0.573,0.639,2.831,2.699,1.852c1.504-0.714,4.306-0.855,4.948,0c2.359-0.355,3.423-1.422,3.929-3.536
			c-8.042-4.43-6.095-5.469-32.12-14.737c-11.819-8.492-28.166-12.27-42.438-12.445C310.061,24.273,292.739,27.881,278.06,36.055
			L278.06,36.055z"/>
		<path id="path38" inkscape:connector-curvature="0" fill="#ECB100" stroke="#D1EF00" d="M365.535,53.757
			c1.016,0.926,2.844,0.811,5.597,0.309"/>
		<path id="path40" inkscape:connector-curvature="0" fill="#ECB100" stroke="#D1EF00" stroke-width="1" d="M277.515,52.049
			c3.393,0.238,4.315-0.102,5.237-0.636"/>
		<path id="path42" inkscape:connector-curvature="0" fill="none" stroke="#980000" d="M274.942,42.486
			c1.421,0.918,2.401,2.086,3.435,3.59c0.38,0.553,1.132,1.557,1.544,1.969c0.526,0.526,0.667,1.776,2.2,1.776"/>
		<path id="path44" inkscape:connector-curvature="0" fill="none" stroke="#980000" d="M282.623,43.644
			c0.524,0.393-1.07,0.818-1.39,1.39c-1.927,3.447-4.774,4.619-4.941,4.786"/>
		<path id="path46" inkscape:connector-curvature="0" fill="none" stroke="#980000" stroke-width="1" d="M372.795,46.35
			c-3.415,0.111-4.517,7.189-6.683,6.285"/>
		<path id="path48" inkscape:connector-curvature="0" fill="none" stroke="#980000" stroke-width="1" d="M372.505,51.936
			c-4.425,0.67-2.939-5.044-4.708-5.074"/>
		<g id="_x33_d" transform="translate(8.99762,-43.753295)">
			<path id="nervus_--3d" sodipodi:nodetypes="cccc" inkscape:connector-curvature="0" fill="#AA8800" stroke="#000000" d="
				M192.595,409.857l10.878,6.451c0.193,3.101,1.808,4.192,5.197,3.082l12.14,7.199l-0.027-0.057
				C194.976,427.022,192.595,409.857,192.595,409.857L192.595,409.857z"/>
			<path id="sclera_--3d" sodipodi:nodetypes="ccccc" inkscape:connector-curvature="0" fill="#4D4D4D" stroke="#000000" d="
				M192.506,409.731l-7.161-4.312c-0.201-0.029,1.115,32.926,42.732,26.486l-6.93-5.082
				C222.016,426.124,200.212,427.399,192.506,409.731L192.506,409.731z"/>
		</g>
		<g id="pupilla_lines" transform="translate(8.99762,-43.753295)">
			<path id="pupilla_line_--1" sodipodi:nodetypes="cc" inkscape:connector-curvature="0" fill="none" stroke="#000000" d="
				M301.531,83.888l-19.513-5.682"/>
			<path id="pupilla_line_--2" sodipodi:nodetypes="cc" inkscape:connector-curvature="0" fill="none" stroke="#000000" d="
				M316.007,77.403v-7.99"/>
			<path id="pupilla_line_--3" sodipodi:nodetypes="cc" inkscape:connector-curvature="0" fill="none" stroke="#000000" d="
				M328.814,79.024l8.443-5.607"/>
			<path id="pupilla_line_--4" inkscape:connector-curvature="0" fill="none" stroke="#000000" d="M332.022,83.272l15.707-5.698"/>
			<path id="pupilla_line_--5" sodipodi:nodetypes="cc" inkscape:connector-curvature="0" fill="none" stroke="#000000" d="
				M304.566,79.242l-10.272-6.749"/>
			<path id="pupilla_line_--6" sodipodi:nodetypes="cc" inkscape:connector-curvature="0" fill="none" stroke="#000000" d="
				M321.622,77.602l6.55-6.496"/>
			<path id="pupilla_line_--7" sodipodi:nodetypes="cc" inkscape:connector-curvature="0" fill="none" stroke="#000000" d="
				M309.747,77.73l-4.52-7.239"/>
		</g>
		<g id="vasa" transform="translate(8.9975727,-43.753295)">
			
				<path id="vena_dextra" sodipodi:nodetypes="cccc" inkscape:connector-curvature="0" fill="none" stroke="#0000FF" stroke-width="1.2" stroke-linecap="round" stroke-linejoin="round" d="
				M245.479,345.209c0,0,7.699-10.471,40.345,4.158c0,0,64.368,10.933,91.778-13.089c1.689,0.675,53.721-39.831,47.121-46.813"/>
			
				<path id="vena_sinistra" sodipodi:nodetypes="csscc" inkscape:connector-curvature="0" fill="none" stroke="#0000FF" stroke-width="1.2" stroke-linecap="round" d="
				M207.157,419.056c3.831-11.791,11.598-24.617,18.372-36.727c5.025-8.982,19.458-31.498,20.18-38.17
				c0.774-7.155,1.869-10.951-35.931-40.722c0,0-21.851-28.151-22.864-42.596"/>
			
				<path id="arteria_dextra" sodipodi:nodetypes="cssssssc" inkscape:connector-curvature="0" fill="none" stroke="#FF0000" stroke-width="1.5" stroke-linecap="round" d="
				M247.073,345.209c0,0,4.806-9.984,12.117-7.394c6.896,2.443,12.424,8.939,21.016,12.145c6.117,2.283,14.091,1.531,23.843,2.64
				c8.495,0.966,14.585,0.855,22.877-0.324c7.195-1.024,21.516-5.907,31.163-7.81c14.108-2.784,32.705-13.64,52.215-32.658
				c6.913-6.738,12.342-14.667,15.09-22.343"/>
			
				<path id="arteria_sinistra" sodipodi:nodetypes="cscsc" inkscape:connector-curvature="0" fill="none" stroke="#FF0000" stroke-width="1.5" stroke-linecap="round" d="
				M208.107,418.748c0.188,0.251,11.881-24.082,20.009-38.624c7.411-13.26,18.214-31.76,18.214-31.76s4.355-14.373-5.227-19.164
				c-9.582-4.791-33.388-20.321-53.859-66.054"/>
		</g>
	</g>
	<path id="cornea_--arrow" inkscape:connector-curvature="0" fill="none" stroke="#000000" d="M46.429,196.431l23.283,22.437"/>
	<path id="sclera_--arrow" inkscape:connector-curvature="0" fill="none" stroke="#000000" d="M306.845,407.251l-23-25.958"/>
	<path id="retina_--arrow" sodipodi:nodetypes="cc" inkscape:connector-curvature="0" fill="none" stroke="#000000" d="
		M169.619,407.251l11.395-35.752"/>
	<path id="fibrae_zonulares_--arrow" inkscape:connector-curvature="0" fill="none" stroke="#000000" d="M96.805,368.728
		l9.737-80.857"/>
	<path id="iris_--arrow" inkscape:connector-curvature="0" fill="none" stroke="#000000" d="M44.312,314.541l49.53-37.677"/>
	<path id="pupilla_--arrow" sodipodi:nodetypes="cc" inkscape:connector-curvature="0" fill="none" stroke="#000000" d="
		M34.551,257.607l60.842-15.566"/>
	<path id="nervus_opticus_--arrow" sodipodi:nodetypes="cc" inkscape:connector-curvature="0" fill="none" stroke="#000000" d="
		M436.025,407.251l-34.934-72.525"/>
	<path id="discus_opticus_--arrow" sodipodi:nodetypes="cc" inkscape:connector-curvature="0" fill="none" stroke="#000000" d="
		M419.178,267.402l-69.213,33.353"/>
	<text transform="matrix(1 0 0 1 -17.7814 262.4492)" font-family="'MinionPro-Regular'" font-size="13.3048">Źrenica</text>
	<text transform="matrix(1 0 0 1 -20.7423 318.687)" font-family="'MinionPro-Regular'" font-size="13.3048">Tęczówka</text>
	<text transform="matrix(1 0 0 1 139.93 218.8676)" font-family="'MinionPro-Regular'" font-size="13.3048">Soczewka</text>
	<text transform="matrix(1 0 0 1 -18.5631 196.1914)" font-family="'MinionPro-Regular'" font-size="13.5467">Rogówka</text>
	<text transform="matrix(1 0 0 1 311.4118 420.2569)" font-family="'MinionPro-Regular'" font-size="13.3048">Twardówka</text>
	<text transform="matrix(1 0 0 1 114.1946 420.2571)" font-family="'MinionPro-Regular'" font-size="13.3048">Siatkówka</text>
	<text transform="matrix(1 0 0 1 -4.2672 382.8721)" font-family="'MinionPro-Regular'" font-size="13.3048">Wiązadełka Zinna</text>
	<text transform="matrix(1 0 0 1 425.8481 267.4018)" font-family="'MinionPro-Regular'" font-size="13.3048">Plamka ślepa</text>
	<text transform="matrix(1 0 0 1 439.2867 420.2566)" font-family="'MinionPro-Regular'" font-size="13.3048">Nerw wzrokowy</text>
	<text transform="matrix(1 0 0 1 421.3724 181.437)" font-family="'MinionPro-Regular'" font-size="13.3048">Dołek środkowy</text>
	<text transform="matrix(1 0 0 1 432.3383 194.8749)" font-family="'MinionPro-Regular'" font-size="13.3048">Plamka żółta</text>
	
		<path id="retinal_blood_vessels_--arrow2" sodipodi:nodetypes="cc" inkscape:connector-curvature="0" fill="none" stroke="#000000" d="
		M367.573,228.092l53.838-32.34"/>
	<text transform="matrix(1 0 0 1 224.2195 273.4494)" font-family="'MinionPro-Regular'" font-size="13.3048">Ciało szkliste</text>
</g>
</svg>
