<?xml version="1.0" encoding="utf-8"?>
<!-- Generator: Adobe Illustrator 17.0.0, SVG Export Plug-In . SVG Version: 6.00 Build 0)  -->
<!DOCTYPE svg PUBLIC "-//W3C//DTD SVG 1.1//EN" "http://www.w3.org/Graphics/SVG/1.1/DTD/svg11.dtd">
<svg version="1.1" id="Layer_1" xmlns="http://www.w3.org/2000/svg" xmlns:xlink="http://www.w3.org/1999/xlink" x="0px" y="0px"
	 width="512.825px" height="400.884px" viewBox="0 0 512.825 400.884" enable-background="new 0 0 512.825 400.884"
	 xml:space="preserve">
<path fill="none" stroke="#000000" stroke-width="3.2" stroke-dasharray="25.6,3.2" d="M239.07,360.161
	c0,0,10.469-231.817-61.433-291.461c-33.59-27.864-19.989-9.895-109.934,106.304c-147.246,190.223-175.16,174.965-175.16,174.965"/>
<rect x="0.813" y="363.407" fill="none" stroke="#000000" stroke-width="1.6" width="511.223" height="0.258"/>
<line fill="none" stroke="#000000" stroke-width="0.8" x1="22.434" y1="379.664" x2="22.434" y2="363.664"/>
<line fill="none" stroke="#000000" stroke-width="0.8" x1="60.035" y1="379.664" x2="60.035" y2="363.664"/>
<line fill="none" stroke="#000000" stroke-width="0.8" x1="101.633" y1="381.266" x2="101.633" y2="362.864"/>
<line fill="none" stroke="#000000" stroke-width="0.8" x1="136.832" y1="379.664" x2="136.832" y2="363.664"/>
<line fill="none" stroke="#000000" stroke-width="0.8" x1="174.434" y1="381.266" x2="174.434" y2="362.864"/>
<line fill="none" stroke="#000000" stroke-width="0.8" x1="209.633" y1="379.664" x2="209.633" y2="363.664"/>
<line fill="none" stroke="#000000" stroke-width="0.8" x1="245.633" y1="379.664" x2="245.633" y2="363.664"/>
<line fill="none" stroke="#000000" stroke-width="0.8" x1="282.434" y1="379.664" x2="282.434" y2="363.664"/>
<line fill="none" stroke="#000000" stroke-width="0.8" x1="318.434" y1="379.664" x2="318.434" y2="363.664"/>
<line fill="none" stroke="#000000" stroke-width="0.8" x1="359.234" y1="379.664" x2="359.234" y2="363.664"/>
<line fill="none" stroke="#000000" stroke-width="0.8" x1="395.234" y1="379.664" x2="395.234" y2="363.664"/>
<line fill="none" stroke="#000000" stroke-width="0.8" x1="432.832" y1="379.664" x2="432.832" y2="363.664"/>
<line fill="none" stroke="#000000" stroke-width="1.5432" x1="291.363" y1="9.266" x2="269.766" y2="9.266"/>
<polygon fill-rule="evenodd" clip-rule="evenodd" points="271.234,9.266 272.035,5.266 264.035,9.266 272.035,13.266 "/>
<path fill="none" stroke="#000000" stroke-width="1.6" d="M168.832,258.067c0,0,20.801,12,23.203,36.797"/>
<polygon fill-rule="evenodd" clip-rule="evenodd" points="191.234,290.067 188.035,290.434 192.832,300.465 194.434,288.864 "/>
<path fill-rule="evenodd" clip-rule="evenodd" d="M186.551,300.731C139.73,334.856,79,347.672,7.109,353.266l0.25,3.199
	c72.106-5.609,131.614-17.023,179.192-51.699V300.731z M244.832,1.164c0,0.036,0.004,0.094,0,0.125
	c-1.398,24.879,1.004,78.129-2.723,134.102c-3.734,56.043-12.273,112.48-37.925,147.25l0.035,5.531
	c26.429-35.828,37.344-96.285,41.09-152.558c1.48-22.235,1.902-43.481,2.074-63.25c4.758,89.281,15.863,152.562,39.449,196.75
	c29.449,55.164,78.332,80.89,156.977,92.125l0.449-3.149c-78.156-11.164-125.672-36.238-154.625-90.476
	c-28.942-54.215-39.195-137.993-41.598-266.25c-0.004-0.043,0-0.082,0-0.125L244.832,1.164z"/>
<line fill="none" stroke="#000000" stroke-width="0.8" x1="432.762" y1="379.879" x2="432.762" y2="363.879"/>
<line fill="none" stroke="#000000" stroke-width="0.8" x1="470.359" y1="379.879" x2="470.359" y2="363.879"/>
<g>
	<text transform="matrix(1 0 0 1 291.0078 400.4647)" font-family="'MinionPro-Regular'" font-size="21.4588">°</text>
	<text transform="matrix(1 0 0 1 280.2783 400.4647)" font-family="'MinionPro-Regular'" font-size="21.4588">0</text>
	<text transform="matrix(1 0 0 1 269.5488 400.4647)" font-family="'MinionPro-Regular'" font-size="21.4588">1</text>
	<text transform="matrix(1 0 0 1 329.4619 400.4647)" font-family="'MinionPro-Regular'" font-size="21.4588">°</text>
	<text transform="matrix(1 0 0 1 318.7324 400.4647)" font-family="'MinionPro-Regular'" font-size="21.4588">0</text>
	<text transform="matrix(1 0 0 1 308.0029 400.4647)" font-family="'MinionPro-Regular'" font-size="21.4588">2</text>
	<text transform="matrix(1 0 0 1 402.293 400.4647)" font-family="'MinionPro-Regular'" font-size="21.4588">°</text>
	<text transform="matrix(1 0 0 1 391.5635 400.4647)" font-family="'MinionPro-Regular'" font-size="21.4588">0</text>
	<text transform="matrix(1 0 0 1 380.834 400.4647)" font-family="'MinionPro-Regular'" font-size="21.4588">4</text>
</g>
<g>
	<text transform="matrix(1 0 0 1 180.6147 400.4647)" font-family="'MinionPro-Regular'" font-size="21.4588">°</text>
	<text transform="matrix(1 0 0 1 169.8853 400.4647)" font-family="'MinionPro-Regular'" font-size="21.4588">0</text>
	<text transform="matrix(1 0 0 1 159.1558 400.4647)" font-family="'MinionPro-Regular'" font-size="21.4588">2</text>
	<text transform="matrix(1 0 0 1 216.644 400.4647)" font-family="'MinionPro-Regular'" font-size="21.4588">°</text>
	<text transform="matrix(1 0 0 1 205.9146 400.4647)" font-family="'MinionPro-Regular'" font-size="21.4588">0</text>
	<text transform="matrix(1 0 0 1 195.1851 400.4647)" font-family="'MinionPro-Regular'" font-size="21.4588">1</text>
	<text transform="matrix(1 0 0 1 250.7632 400.4647)" font-family="'MinionPro-Regular'" font-size="21.4588">°</text>
	<text transform="matrix(1 0 0 1 240.0342 400.4647)" font-family="'MinionPro-Regular'" font-size="21.4588">0</text>
</g>
<g>
	<text transform="matrix(1 0 0 1 30.2607 400.4647)" font-family="'MinionPro-Regular'" font-size="21.4588">°</text>
	<text transform="matrix(1 0 0 1 19.5312 400.4647)" font-family="'MinionPro-Regular'" font-size="21.4588">0</text>
	<text transform="matrix(1 0 0 1 8.8018 400.4647)" font-family="'MinionPro-Regular'" font-size="21.4588">6</text>
	<text transform="matrix(1 0 0 1 108.6929 400.4647)" font-family="'MinionPro-Regular'" font-size="21.4588">°</text>
	<text transform="matrix(1 0 0 1 97.9634 400.4647)" font-family="'MinionPro-Regular'" font-size="21.4588">0</text>
	<text transform="matrix(1 0 0 1 87.2339 400.4647)" font-family="'MinionPro-Regular'" font-size="21.4588">4</text>
</g>
<text transform="matrix(1 0 0 1 458.249 399.5028)" font-family="'MinionPro-Regular'" font-size="21.4588">60°</text>
<line fill="none" stroke="#000000" stroke-width="0.8" stroke-dasharray="4.8,4.8" x1="204.598" y1="361.301" x2="204.598" y2="108.43"/>
<line fill="none" stroke="#000000" stroke-width="0.8" stroke-dasharray="4.8,4.8" x1="187.094" y1="363.879" x2="187.094" y2="76.453"/>
<rect x="187.676" y="70.274" fill="#FFFFFF" width="17.418" height="48.043"/>
<path fill="none" stroke="#000000" stroke-width="3.2" stroke-dasharray="19.2,3.2" d="M253.102,360.117
	c0,0-10.473-231.82,61.429-291.461c33.594-27.863,19.989-9.894,109.938,106.305c147.242,190.223,175.156,174.965,175.156,174.965"/>
<text transform="matrix(1 0 0 1 49 258.0662)" font-family="'MinionPro-Regular'" font-size="21.4588">Plamka ślepa</text>
<text transform="matrix(1 0 0 1 301 18.8836)" font-family="'MinionPro-Regular'" font-size="21.4588">Plamka żółta</text>
</svg>
